<?xml version="1.0" encoding="UTF-8" standalone="no"?>
<!-- Created with Inkscape (http://www.inkscape.org/) -->

<svg
   xmlns:dc="http://purl.org/dc/elements/1.1/"
   xmlns:cc="http://creativecommons.org/ns#"
   xmlns:rdf="http://www.w3.org/1999/02/22-rdf-syntax-ns#"
   xmlns:svg="http://www.w3.org/2000/svg"
   xmlns="http://www.w3.org/2000/svg"
   xmlns:sodipodi="http://sodipodi.sourceforge.net/DTD/sodipodi-0.dtd"
   xmlns:inkscape="http://www.inkscape.org/namespaces/inkscape"
   width="297mm"
   height="28.454769mm"
   viewBox="0 0 371.24998 35.568461"
   version="1.1"
   id="svg8"
   inkscape:version="0.92.3 (2405546, 2018-03-11)"
   sodipodi:docname="usyd_logo_resized_2.svg">
  <defs
     id="defs2">
    <clipPath
       id="clipPath833"
       clipPathUnits="userSpaceOnUse">
      <path
         inkscape:connector-curvature="0"
         id="path831"
         d="M 0,1008.24 V 0 h 2913.2 v 1008.24 z" />
    </clipPath>
  </defs>
  <sodipodi:namedview
     id="base"
     pagecolor="#ffffff"
     bordercolor="#666666"
     borderopacity="1.0"
     inkscape:pageopacity="0.0"
     inkscape:pageshadow="2"
     inkscape:zoom="1.4"
     inkscape:cx="2.933357"
     inkscape:cy="86.324125"
     inkscape:document-units="mm"
     inkscape:current-layer="layer1"
     showgrid="false"
     fit-margin-top="0"
     fit-margin-left="0"
     fit-margin-right="0"
     fit-margin-bottom="0"
     inkscape:window-width="1366"
     inkscape:window-height="705"
     inkscape:window-x="-8"
     inkscape:window-y="-8"
     inkscape:window-maximized="1"
     units="mm"
     height="35.56847mm"
     scale-x="1.25" />
  <metadata
     id="metadata5">
    <rdf:RDF>
      <cc:Work
         rdf:about="">
        <dc:format>image/svg+xml</dc:format>
        <dc:type
           rdf:resource="http://purl.org/dc/dcmitype/StillImage" />
        <dc:title></dc:title>
      </cc:Work>
    </rdf:RDF>
  </metadata>
  <g
     inkscape:label="Layer 1"
     inkscape:groupmode="layer"
     id="layer1"
     transform="translate(-6.8227234,-137.47469)">
    <g
       transform="matrix(0.35277777,0,0,-0.35277777,6.8227234,173.04316)"
       inkscape:label="usyd-primary-colour"
       id="g823">
      <g
         transform="scale(0.1)"
         id="g825">
        <g
           id="g827">
          <g
             clip-path="url(#clipPath833)"
             id="g829">
            <path
               inkscape:connector-curvature="0"
               id="path835"
               style="fill:#145194;fill-opacity:1;fill-rule:nonzero;stroke:none"
               d="m 1217,665.246 h -55.19 v 7.09 h 19.16 v 109.816 h -38.33 V 766.82 h -9.2 v 30.282 h 9.2 v -5.368 h 93.52 v 5.368 h 9.2 V 766.82 h -9.2 v 15.332 h -38.33 V 672.336 H 1217 v -7.09" />
            <path
               inkscape:connector-curvature="0"
               id="path837"
               style="fill:#145194;fill-opacity:1;fill-rule:nonzero;stroke:none"
               d="m 1391.2,665.246 h -45.61 v 7.09 h 14.37 v 52.707 h -71.86 v -52.707 h 14.37 v -7.09 h -45.61 v 7.09 h 14.37 v 112.309 h -14.37 v 7.089 h 45.61 v -7.089 h -14.37 v -50.981 h 71.86 v 50.981 h -14.37 v 7.089 h 45.61 v -7.089 h -14.57 V 672.336 h 14.57 v -7.09" />
            <path
               inkscape:connector-curvature="0"
               id="path839"
               style="fill:#145194;fill-opacity:1;fill-rule:nonzero;stroke:none"
               d="m 1494.45,665.246 h -87.19 v 7.09 h 14.37 v 112.309 h -14.37 v 7.089 h 76.46 v 5.368 h 8.82 v -30.473 h -8.62 v 16.293 h -45.42 v -49.063 h 36.22 v 14.371 l 8.82,0.192 v -37.754 l -8.82,-0.191 v 14.753 h -36.22 v -51.359 h 47.13 v 16.863 h 8.82 v -25.488" />
            <path
               inkscape:connector-curvature="0"
               id="path841"
               style="fill:#145194;fill-opacity:1;fill-rule:nonzero;stroke:none"
               d="m 1683.77,784.645 h -14.38 v -73.02 c 0,-20.504 -7.28,-33.73 -23.19,-42.355 -8.05,-4.215 -17.24,-6.512 -26.64,-6.512 -27.78,0 -48.29,18.398 -48.29,43.504 v 78.383 h -14.38 v 7.089 h 45.62 v -7.089 h -14.38 v -72.446 c 0,-23.187 13.61,-38.328 34.89,-38.328 21.84,0 36.6,15.527 36.6,38.524 v 72.25 h -14.38 v 7.089 h 38.53 v -7.089" />
            <path
               inkscape:connector-curvature="0"
               id="path843"
               style="fill:#145194;fill-opacity:1;fill-rule:nonzero;stroke:none"
               d="m 1801.97,663.137 h -5.94 l -73.6,101.191 V 672.336 H 1737 v -7.09 h -38.71 v 7.09 h 14.56 v 105.023 l -5.17,7.286 h -13.23 v 7.089 h 27.8 l 70.14,-96.203 v 89.114 h -14.57 v 7.089 h 38.53 v -7.089 h -14.38 V 663.137" />
            <path
               inkscape:connector-curvature="0"
               id="path845"
               style="fill:#145194;fill-opacity:1;fill-rule:nonzero;stroke:none"
               d="m 1875.92,665.246 h -45.62 v 7.09 h 14.38 v 112.309 h -14.38 v 7.089 h 45.62 v -7.089 h -14.38 V 672.336 h 14.38 v -7.09" />
            <path
               inkscape:connector-curvature="0"
               id="path847"
               style="fill:#145194;fill-opacity:1;fill-rule:nonzero;stroke:none"
               d="m 1953.34,661.988 h -6.52 l -48.29,122.657 h -11.31 v 7.089 h 47.53 v -7.089 h -18.02 l 37.19,-94.098 36.79,94.098 h -12.65 v 7.089 h 32.77 v -7.089 h -9.58 l -47.91,-122.657" />
            <path
               inkscape:connector-curvature="0"
               id="path849"
               style="fill:#145194;fill-opacity:1;fill-rule:nonzero;stroke:none"
               d="m 2109.52,665.246 h -87.2 v 7.09 h 14.38 v 112.309 h -14.38 v 7.089 h 76.47 v 5.368 h 8.82 v -30.473 h -8.63 v 16.293 h -45.42 v -49.063 h 36.23 v 14.371 l 8.81,0.192 v -37.754 l -8.81,-0.191 v 14.753 h -36.23 v -51.359 h 47.15 v 16.863 h 8.81 v -25.488" />
            <path
               inkscape:connector-curvature="0"
               id="path851"
               style="fill:#145194;fill-opacity:1;fill-rule:nonzero;stroke:none"
               d="m 2159.13,730.793 h 18.4 c 14.56,0 24.72,10.734 24.72,26.445 0,16.485 -9.01,25.684 -25.11,25.684 h -18.01 z m 79.53,-65.547 h -16.29 c -11.31,0 -13.41,1.152 -19.73,11.309 l -28.57,45.422 h -14.94 v -49.641 h 14.38 v -7.09 h -45.62 v 7.09 h 14.38 v 112.309 h -14.38 v 7.089 h 53.28 c 18.59,0 29.13,-5.175 34.87,-17.054 2.5,-5.176 3.84,-10.926 3.84,-17.059 0,-18.59 -10.35,-30.469 -28.75,-33.156 l 27.6,-42.543 c 4.6,-7.094 7.67,-9.391 12.46,-9.391 h 7.47 v -7.285" />
            <path
               inkscape:connector-curvature="0"
               id="path853"
               style="fill:#145194;fill-opacity:1;fill-rule:nonzero;stroke:none"
               d="m 2263.16,663.523 h -9.01 v 34.497 h 9.01 v -15.141 c 11.69,-7.856 16.87,-9.777 25.3,-9.777 15.33,0 25.68,8.054 25.68,20.125 0,10.925 -7.47,18.972 -28.17,29.707 -24.15,12.652 -32.39,22.23 -32.39,37.949 0,18.972 16.1,33.152 37.76,33.152 9.58,0 16.67,-1.723 22.8,-5.363 v 6.898 h 8.82 v -32.773 h -8.82 v 13.605 c -9.77,6.52 -14.56,8.434 -22.24,8.434 -13.02,0 -21.46,-7.856 -21.46,-19.742 0,-9.77 5.57,-15.332 29.52,-29.129 23.96,-13.797 30.85,-22.231 30.85,-37.945 0,-19.93 -16.47,-35.262 -38.13,-35.262 -12.07,0 -19.94,2.488 -29.52,8.621 v -7.856" />
            <path
               inkscape:connector-curvature="0"
               id="path855"
               style="fill:#145194;fill-opacity:1;fill-rule:nonzero;stroke:none"
               d="m 2394.03,665.246 h -45.61 v 7.09 h 14.37 v 112.309 h -14.37 v 7.089 h 45.61 v -7.089 h -14.37 V 672.336 h 14.37 v -7.09" />
            <path
               inkscape:connector-curvature="0"
               id="path857"
               style="fill:#145194;fill-opacity:1;fill-rule:nonzero;stroke:none"
               d="m 2490.03,665.246 h -55.2 v 7.09 h 19.16 v 109.816 h -38.33 V 766.82 h -9.2 v 30.282 h 9.2 v -5.368 h 93.53 v 5.368 h 9.2 V 766.82 h -9.2 v 15.332 h -38.33 V 672.336 h 19.17 v -7.09" />
            <path
               inkscape:connector-curvature="0"
               id="path859"
               style="fill:#145194;fill-opacity:1;fill-rule:nonzero;stroke:none"
               d="m 2611.1,665.246 h -45.6 v 7.09 h 14.37 v 51.172 l -39.67,61.137 h -11.12 v 7.089 h 47.34 v -7.089 h -17.45 l 32.97,-50.215 30.47,50.215 h -17.44 v 7.089 h 38.34 v -7.089 h -9.97 l -36.8,-59.985 v -52.324 h 14.56 v -7.09" />
            <path
               inkscape:connector-curvature="0"
               id="path861"
               style="fill:#145194;fill-opacity:1;fill-rule:nonzero;stroke:none"
               d="m 2711.68,728.488 c 0,-32.386 18.02,-55.765 42.93,-55.765 24.53,0 42.35,23.57 42.35,55.765 0,32.2 -17.82,55.582 -42.16,55.582 -25.1,0 -43.12,-23 -43.12,-55.582 z m -18.97,-0.187 c 0,36.027 27.98,65.734 61.9,65.734 33.35,0 61.33,-29.898 61.33,-65.547 0,-35.644 -27.98,-65.73 -61.33,-65.73 -33.73,0 -61.9,29.894 -61.9,65.543" />
            <path
               inkscape:connector-curvature="0"
               id="path863"
               style="fill:#145194;fill-opacity:1;fill-rule:nonzero;stroke:none"
               d="m 2873.4,665.246 h -45.62 v 7.09 h 14.38 v 112.309 h -14.38 v 7.089 h 76.47 v 5.368 h 8.82 v -30.473 h -8.63 v 16.293 h -45.42 v -49.063 h 36.22 v 14.371 l 8.82,0.192 v -37.754 l -8.82,-0.191 v 14.753 h -36.22 v -52.894 h 14.38 v -7.09" />
            <path
               inkscape:connector-curvature="0"
               id="path865"
               style="fill:#145194;fill-opacity:1;fill-rule:nonzero;stroke:none"
               d="m 1157.29,255.816 h -23.73 v 90.918 h 23.73 v -39.898 c 30.82,-20.715 44.46,-25.766 66.67,-25.766 40.42,0 67.69,21.211 67.69,53.028 0,28.789 -19.71,50 -74.25,78.293 -63.64,33.328 -85.36,58.621 -85.36,100.246 0,50.004 42.43,87.375 99.5,87.375 25.26,0 43.94,-4.543 60.11,-14.141 v 18.184 h 23.23 v -86.367 h -23.23 v 35.859 c -25.76,17.172 -38.39,22.223 -58.59,22.223 -34.35,0 -56.57,-20.708 -56.57,-52.024 0,-25.777 14.64,-40.527 77.78,-77.012 63.13,-36.367 81.32,-58.593 81.32,-100 0,-52.539 -43.44,-92.937 -100.51,-92.937 -31.82,0 -52.53,6.57 -77.79,22.723 v -20.704" />
            <path
               inkscape:connector-curvature="0"
               id="path867"
               style="fill:#145194;fill-opacity:1;fill-rule:nonzero;stroke:none"
               d="m 1560.81,260.367 h -120.2 v 18.684 h 37.88 v 134.851 l -104.55,161.364 h -29.29 v 18.687 h 124.74 v -18.687 h -45.95 l 86.86,-132.575 80.32,132.575 h -45.97 v 18.687 h 101.01 V 575.266 H 1619.4 L 1522.43,416.93 V 279.051 h 38.38 v -18.684" />
            <path
               inkscape:connector-curvature="0"
               id="path869"
               style="fill:#145194;fill-opacity:1;fill-rule:nonzero;stroke:none"
               d="m 1753.2,285.621 h 60.62 c 69.19,0 121.72,61.113 121.21,141.406 0,78.035 -53.54,141.164 -120.21,141.164 h -61.62 z m -82.32,-25.254 v 18.684 h 37.88 v 296.215 h -37.88 v 18.687 h 148.99 c 90.92,0 165.16,-74.75 165.16,-166.418 0,-93.437 -72.73,-167.168 -165.66,-167.168 h -148.49" />
            <path
               inkscape:connector-curvature="0"
               id="path871"
               style="fill:#145194;fill-opacity:1;fill-rule:nonzero;stroke:none"
               d="m 2276.4,254.801 h -15.66 L 2066.8,521.727 V 279.051 h 38.39 v -18.684 h -102.04 v 18.684 h 38.39 V 556.07 l -13.63,19.196 h -34.85 v 18.687 h 73.23 l 184.85,-253.789 v 235.102 h -38.38 v 18.687 h 101.52 V 575.266 H 2276.4 V 254.801" />
            <path
               inkscape:connector-curvature="0"
               id="path873"
               style="fill:#145194;fill-opacity:1;fill-rule:nonzero;stroke:none"
               d="m 2578.39,260.367 h -229.81 v 18.684 h 37.88 v 296.215 h -37.88 v 18.687 h 201.53 v 14.141 h 23.23 v -80.309 h -22.72 v 42.934 H 2430.91 V 441.18 h 95.46 v 37.968 l 23.23,0.508 v -99.59 l -23.23,-0.507 v 38.894 h -95.46 V 283.094 h 124.25 v 44.441 h 23.23 v -67.168" />
            <path
               inkscape:connector-curvature="0"
               id="path875"
               style="fill:#145194;fill-opacity:1;fill-rule:nonzero;stroke:none"
               d="m 2828.35,260.367 h -120.21 v 18.684 h 37.89 v 134.851 l -104.56,161.364 h -29.28 v 18.687 h 124.74 v -18.687 h -45.95 l 86.86,-132.575 80.31,132.575 h -45.96 v 18.687 h 101.01 v -18.687 h -26.26 L 2789.97,416.93 V 279.051 h 38.38 v -18.684" />
            <path
               inkscape:connector-curvature="0"
               id="path877"
               style="fill:#fbbc09;fill-opacity:1;fill-rule:nonzero;stroke:none"
               d="M 943.941,864.43 V 630.176 C 943.941,346.227 750.566,54.5586 471.855,0 203.09,51.0039 0,346.227 0,630.176 v 315.035 c 0,0 235.488,63.029 471.953,63.029 274.731,0 471.988,-63.029 471.988,-63.029 V 864.43" />
            <path
               inkscape:connector-curvature="0"
               id="path879"
               style="fill:#ffffff;fill-opacity:1;fill-rule:nonzero;stroke:none"
               d="m 471.934,73.8633 c 226.273,0.2656 401.761,210.1567 401.793,441.3357 0,271.559 0,397.922 0,397.922 l -5.875,1.797 c 0,0 -203.899,63.223 -395.997,63.281 C 279.789,978.141 76.2539,915.016 75.8633,914.918 l -5.8867,-1.797 c 0,0 0,-126.363 0,-397.922 C 70.0117,284.02 245.496,74.1289 471.797,73.8633" />
            <path
               inkscape:connector-curvature="0"
               id="path881"
               style="fill:#145194;fill-opacity:1;fill-rule:nonzero;stroke:none"
               d="m 563.301,103.047 v 156.519 h 178.601 c 10.5,0 19.801,-5.175 25.532,-13.14 42.179,56.265 71.546,123.922 83.523,196.07 H 563.301 v 150.527 c -30.231,1.543 -60.996,2.461 -91.446,2.461 -30.371,0 -61.093,-0.918 -91.273,-2.437 V 442.496 H 92.7578 c 12.0002,-72.203 41.3752,-139.883 83.6442,-196.191 5.7,8.031 15.024,13.261 25.614,13.261 h 178.566 v -156.57 c 29.184,-8.0351 59.672,-12.4491 91.215,-12.4491 v -1.2813 h 0.137 v 1.2813 c 31.601,0 62.144,4.4219 91.367,12.5001" />
            <path
               inkscape:connector-curvature="0"
               id="path883"
               style="fill:#fbbc09;fill-opacity:1;fill-rule:nonzero;stroke:none"
               d="m 766.328,297.461 -38.992,18.473 -13.856,-40.387 -14.492,40.625 -38.367,-18.711 18.52,39.004 -40.371,13.844 40.566,14.511 -18.715,38.442 39.024,-18.5 13.835,40.351 14.508,-40.586 38.34,18.735 -18.48,-39.028 40.355,-13.925 -40.641,-14.469 18.766,-38.379" />
            <path
               inkscape:connector-curvature="0"
               id="path885"
               style="fill:#fbbc09;fill-opacity:1;fill-rule:nonzero;stroke:none"
               d="m 177.379,297.461 39.031,18.473 13.832,-40.387 14.477,40.625 38.386,-18.711 -18.511,39.004 40.363,13.844 -40.559,14.511 18.707,38.442 -38.972,-18.5 -13.891,40.351 -14.476,-40.586 -38.387,18.735 18.527,-39.028 -40.355,-13.925 40.633,-14.469 -18.805,-38.379" />
            <path
               inkscape:connector-curvature="0"
               id="path887"
               style="fill:#fbbc09;fill-opacity:1;fill-rule:nonzero;stroke:none"
               d="m 524.758,144.137 -38.938,18.5 -13.867,-40.508 -14.492,40.777 -38.356,-18.769 18.497,38.984 -40.379,13.93 40.593,14.508 -18.711,38.363 38.922,-18.481 13.926,40.371 14.492,-40.624 38.313,18.734 -18.453,-38.988 40.367,-13.883 -40.602,-14.516 18.688,-38.398" />
            <path
               inkscape:connector-curvature="0"
               id="path889"
               style="fill:#fbbc09;fill-opacity:1;fill-rule:nonzero;stroke:none"
               d="m 524.785,440.348 -38.926,18.457 -13.906,-40.371 -14.492,40.625 -38.316,-18.711 18.437,39.023 -40.359,13.867 40.613,14.5 -18.691,38.36 38.902,-18.477 13.906,40.41 14.453,-40.644 38.379,18.711 -18.519,-38.946 40.406,-13.914 -40.602,-14.492 18.715,-38.398" />
            <path
               inkscape:connector-curvature="0"
               id="path891"
               style="fill:#fbbc09;fill-opacity:1;fill-rule:nonzero;stroke:none"
               d="m 598.922,399.844 h 16.9297 v 12.457 H 598.922 Z" />
            <path
               inkscape:connector-curvature="0"
               id="path893"
               style="fill:#fbbc09;fill-opacity:1;fill-rule:nonzero;stroke:none"
               d="m 598.922,366.676 h 16.9297 v 12.4023 H 598.922 Z" />
            <path
               inkscape:connector-curvature="0"
               id="path895"
               style="fill:#fbbc09;fill-opacity:1;fill-rule:nonzero;stroke:none"
               d="m 598.922,333.453 h 16.9297 v 12.4805 H 598.922 Z" />
            <path
               inkscape:connector-curvature="0"
               id="path897"
               style="fill:#fbbc09;fill-opacity:1;fill-rule:nonzero;stroke:none"
               d="m 598.922,300.309 h 16.9297 v 12.4062 H 598.922 Z" />
            <path
               inkscape:connector-curvature="0"
               id="path899"
               style="fill:#ffffff;fill-opacity:1;fill-rule:nonzero;stroke:none"
               d="m 573.102,383.863 h -74.426 v 11.289 h 74.426 z m 0,-30.855 h -74.426 v 11.289 h 74.426 z m 0,-30.863 h -74.426 v 11.273 h 74.426 z m -58.489,97.793 c -1.437,0.214 -3.136,0 -4.64,0 -17.184,0 -30.43,-13.262 -30.43,-30.176 V 289.469 c 5.617,6.64 14.004,10.84 23.426,10.84 1.211,0 63.383,-0.039 86.988,-0.055 v 119.684 h -75.344" />
            <path
               inkscape:connector-curvature="0"
               id="path901"
               style="fill:#fbbc09;fill-opacity:1;fill-rule:nonzero;stroke:none"
               d="m 327.875,399.844 h 16.9102 v 12.457 H 327.875 Z" />
            <path
               inkscape:connector-curvature="0"
               id="path903"
               style="fill:#fbbc09;fill-opacity:1;fill-rule:nonzero;stroke:none"
               d="m 327.875,366.676 h 16.9102 v 12.4023 H 327.875 Z" />
            <path
               inkscape:connector-curvature="0"
               id="path905"
               style="fill:#fbbc09;fill-opacity:1;fill-rule:nonzero;stroke:none"
               d="m 327.875,333.453 h 16.9102 v 12.4805 H 327.875 Z" />
            <path
               inkscape:connector-curvature="0"
               id="path907"
               style="fill:#fbbc09;fill-opacity:1;fill-rule:nonzero;stroke:none"
               d="m 327.875,300.309 h 16.9102 v 12.4062 H 327.875 Z" />
            <path
               inkscape:connector-curvature="0"
               id="path909"
               style="fill:#ffffff;fill-opacity:1;fill-rule:nonzero;stroke:none"
               d="m 370.613,395.152 h 74.461 v -11.289 h -74.461 z m 0,-30.855 h 74.461 v -11.289 h -74.461 z m 0,-30.879 h 74.461 v -11.273 h -74.461 z m -16.812,86.52 V 300.254 c 23.582,0.016 85.75,0.055 86.98,0.055 9.407,0 17.828,-4.2 23.43,-10.84 v 100.293 c 0,16.914 -13.231,30.176 -30.449,30.176 -1.504,0 -3.2,0.214 -4.625,0 h -75.336" />
            <path
               inkscape:connector-curvature="0"
               id="path911"
               style="fill:#e51635;fill-opacity:1;fill-rule:nonzero;stroke:none"
               d="m 471.855,612.145 c 166.75,-0.016 342.618,-26.758 385.231,-33.625 v 322.242 c -5.731,1.66 -15.449,4.468 -28.563,7.965 -21.914,5.859 -53.093,13.671 -90.207,21.523 -74.246,15.664 -172.207,31.27 -266.461,31.27 -141.425,0.039 -291.003,-35.176 -356.683,-52.793 -13.11,-3.497 -22.8439,-6.305 -28.5392,-7.965 V 578.52 c 42.5622,6.847 218.4802,33.609 385.2222,33.625" />
            <path
               inkscape:connector-curvature="0"
               id="path913"
               style="fill:#fde294;fill-opacity:1;fill-rule:evenodd;stroke:none"
               d="m 421.625,875.191 c 3.766,-3.242 6.965,-7.437 9.574,-12.144 0.196,-0.473 1.211,-1.059 1.762,-0.551 2.023,1.68 3.351,4.223 3.351,7.094 0,5.055 -4.093,9.137 -9.148,9.137 -2.047,0 -3.902,-0.641 -5.383,-1.797 -0.41,-0.254 -0.488,-1.446 -0.156,-1.739 z m -65.68,-78.496 c 0,4.082 -7.586,21.817 -10.457,26.645 -6.086,10.523 2.969,41.558 17.5,45.211 3.141,0.761 4.762,5.336 2.321,7.734 -6.086,6.035 -13.047,13.574 -22.278,13.574 -11.312,0 -20.48,-9.199 -20.48,-20.547 0,-12.988 9.969,-15.054 9.285,-18.652 -4.02,-12.051 -4.098,-25.215 1.324,-34.488 3.742,-6.43 6.598,-16.684 8.856,-24.027 1.367,-7.54 5.933,-13.965 12.371,-17.735 3.195,-1.855 1.636,-4.336 2.98,-7.027 0.625,-1.289 1.66,-2.153 2.481,-2.856 1.363,-1.054 0.312,-1.289 -0.821,-1.132 -9.558,1.21 -24.304,5.238 -30.39,18.109 -3.203,6.875 -13.598,-17.406 -19.742,-5.824 -6.555,12.328 -9.559,21.621 -12.485,34.004 -1.601,6.836 -5.89,-4.883 -7.527,-0.782 -3.008,7.657 -5.133,15.86 -5.133,24.649 0,30.375 22.297,55.859 52.301,62.836 5.808,1.343 -6.735,10.996 1.461,10.543 5.363,-0.293 22.937,-0.352 36.261,-6.856 2.536,-1.07 4.098,3.75 9.153,6.992 0.41,0.254 1.617,0.727 2.512,0.024 5.25,-3.246 7.101,-7.953 9.64,-6.86 13.223,6.348 30.664,6.348 35.93,6.7 8.504,0.531 -4.328,-9.2 1.48,-10.543 30.039,-6.977 52.321,-32.461 52.321,-62.836 0,-8.789 -2.149,-16.992 -5.129,-24.649 -1.645,-4.101 -5.93,7.618 -7.512,0.782 -2.945,-12.383 -5.953,-21.676 -12.484,-34.004 -6.243,-11.582 -16.543,12.699 -19.743,5.824 -5.808,-12.231 -19.41,-16.449 -28.906,-17.91 -1.094,-0.121 -2.109,0.015 -0.801,1.265 0.489,0.469 2.789,2.602 3.414,6.938 0.079,0.465 -0.195,1.148 0.821,1.598 7.156,3.417 12.558,10.078 14.16,18.125 2.277,7.46 5.309,18.085 8.973,24.668 8.136,14.492 -1.758,32.05 0.781,35.957 5.578,3.632 9.285,9.96 9.285,17.167 0,11.348 -9.246,20.547 -20.504,20.547 -6.144,0 -11.629,-2.691 -15.312,-6.933 l -0.586,-0.543 c -1.871,-1.996 -3.707,-4.043 -5.325,-6.211 -1.855,-2.406 -1.445,-6.723 1.774,-7.602 13.988,-3.648 23.137,-35.175 17.402,-45.41 -2.535,-4.551 -10.258,-21.523 -10.258,-26.465 0,-6.367 -5.113,-11.504 -11.457,-11.504 -4.851,0 -8.949,3.008 -10.668,7.485 0,0 0.196,0.371 0.235,0.484 3.883,2.426 12.406,7.539 12.406,12.871 l -1.699,17.27 c 6.969,0.836 10.187,4.625 11.047,11.226 0.621,0.434 1.246,0.899 1.793,1.368 2.324,2.128 3.879,7.89 -1.118,7.074 -7.097,-1.332 -15.132,-1.078 -22.918,-3.246 -1.031,-0.274 -1.792,-1.211 -1.988,-2.207 -0.332,-1.504 4.235,-22.364 5.246,-26.993 0.078,-0.527 -0.269,-0.839 -0.523,-0.839 -3.145,0.254 -8.82,0.531 -10.203,0.531 -1.344,-0.024 -6.867,-0.317 -10.164,-0.586 -0.332,-0.024 -0.801,0.406 -0.684,0.84 1.055,4.918 5.621,25.679 5.621,25.679 0.113,0.864 0,1.778 -0.488,2.485 -1.504,1.969 -21.832,3.711 -24.563,4.234 -1.172,0.219 -2.324,-0.23 -3.039,-1.211 -2.011,-2.851 1.52,-6.054 3.766,-7.398 0.871,-6.41 4.23,-10.121 10.98,-10.957 0.079,-0.102 0.215,-0.293 0.293,-0.332 -0.214,-1.133 -1.933,-17.129 -1.933,-17.231 0,-5.523 8.406,-10.191 12.562,-12.636 0.235,-0.293 0.528,-0.641 0.586,-1.036 -2.011,-4.004 -5.969,-6.875 -10.531,-6.875 -6.363,0 -11.473,5.137 -11.473,11.504 z m -6.554,79.493 c -1.676,1.566 -3.903,2.539 -6.36,2.539 -5.051,0 -9.129,-4.082 -9.129,-9.137 0,-2.914 1.348,-5.473 3.395,-7.192 0.777,-0.527 1.719,-0.195 1.914,0.118 2.727,4.414 6.16,8.457 10.101,11.64 0.372,0.332 0.762,1.524 0.079,2.032 z m 51.5,-104.297 c -2.184,-5.797 -10.36,-3.868 -14.707,-7.442 -0.469,-0.429 -1.782,-0.429 -2.153,-0.113 -4.324,3.687 -12.437,1.875 -15.054,8.18 -0.2,0.492 -0.2,1.527 0.972,1.703 5.739,0.64 10.848,3.433 14.555,7.515 0.308,0.395 1.289,0.743 2.105,-0.214 3.356,-3.727 8.079,-6.465 13.301,-7.301 0.625,-0.102 1.567,-0.625 0.981,-2.328 z m 189.289,91.308 c 0,0 17.593,0.606 29.074,10.766 0,0 12.316,4.195 19.516,-2.328 0.832,-0.758 0.957,-2.559 -0.954,-2.891 -2.109,-0.367 -5.113,-1.285 -8.386,-3.453 -6.278,-4.223 -31.399,-14.672 -39.25,-2.094 z M 254.625,785.137 c -6.008,5.289 7.105,35.332 -21.848,42.593 -4.523,0.278 1.95,-5.371 0.332,-6.718 -8.386,-6.969 -6.222,-9.766 -6.687,-13.946 -0.195,-2.07 -2.363,-1.875 -3.434,-1.48 -6.129,4.156 -21.383,12.223 -35.347,-0.727 -2.657,-2.437 5.324,-2.91 5.109,-4.297 -1.754,-9.761 4.508,-15.054 9.09,-17.515 1.519,-0.727 1.519,-2.602 0.664,-3.828 -1.543,-1.625 -5.246,-4.067 -6.109,-8.11 -0.583,-2.754 -10.336,-1.699 -7.352,-4.843 14.863,-15.68 30.117,-6.582 36.07,-1.93 4.211,4.215 21.922,-0.648 19.196,-9.691 -3.414,-11.524 -2.536,-17.149 0.332,-15.133 4.582,2.926 7.175,4.937 13.402,4.937 1.203,0 4.617,-0.777 3.258,-3.554 -2.192,-5.333 -4.508,-10.157 -2.387,-17.555 0.898,-3.164 3.066,-2.406 4.293,-1.211 7.121,9.898 22.551,9.742 30.082,4.898 10.848,-6.972 41.492,-16.734 81.773,21.739 1.208,1.117 1.247,5.546 -2.265,4.203 -10.981,-4.321 -23.406,-5.332 -43.695,5.039 -1.637,0.855 -9.438,3.629 -11.606,4.097 -25.125,5.391 -51.828,13.165 -62.871,23.032 z M 760,750.152 c 21.555,-0.097 0.336,-17.851 -0.762,-23.062 -0.769,-3.774 2.719,-7.168 6.082,-9.145 2.578,-1.347 2.66,-3.007 0.742,-4.683 -1.992,-1.742 -4.984,-3.34 -12.23,-3.5 -3.156,-0.039 -3.109,-2.032 -2.863,-3.375 0.457,-3.325 4.164,-5.879 9.32,-6.489 2.781,-0.722 3.281,-2.578 0.789,-5.195 -4.293,-4.473 -10.031,-4.473 -19.73,-4.117 -9.145,0.332 -16.446,-10.785 -11.071,-15.41 3.629,-3.125 11,-10.024 4.645,-28.774 -2.024,-5.664 -5.465,5.196 -8.391,3.496 -7.578,-4.511 -14.187,1.172 -17.629,5.254 -1.476,1.739 -2.793,1.797 -3.797,0 -3.035,-5.293 -11.035,-14.629 -27.136,-5.918 -3.481,1.86 -10.688,-4.55 -11.11,-2.363 -2.613,12.539 3.805,19.965 9.278,23.867 0.547,0.434 2.652,3.282 -0.907,3.188 -5.449,0.293 -12.078,2.047 -12.828,8.711 -0.117,1.422 -6.941,1.074 -6.601,2.984 1.621,9.223 21.879,15.899 35.824,6.641 11.813,-7.813 26.637,18.832 15.988,31.332 -7.715,8.98 -52.808,-16.172 -68.14,16.5 -6.153,13.144 1.562,24.375 -4.7,25.273 -6.281,0.899 -34.636,7.031 -66.113,-18.277 -53.187,-42.793 -110.848,-19.477 -124.406,-9.945 -2.125,0.664 -4.195,-1.036 -3.297,-3.18 2.184,-5.512 1.25,-10.649 -1.406,-14.574 -5.535,-8.379 -24.653,-16.93 -28.031,-17.926 -22.395,-6.582 -20.032,-23.711 -17.692,-31.352 0.703,-2.32 -0.156,-3.711 -2.574,-3.277 -6.852,1.266 -20.68,5.465 -26.102,18.926 -0.605,1.558 -2.164,1.621 -4.019,0.289 -8.328,-5.938 -5.379,-14.571 -3.414,-18.399 0.761,-1.519 0.332,-2.968 -1.633,-3.183 -7.629,-0.918 -13.113,7.992 -19.684,7.343 -4.293,-0.41 -9.328,-3.71 -12.054,-5.624 -1.328,-0.84 -1.528,-3.008 -0.703,-5.469 8.347,-24.801 -5.387,-25.645 -6.207,-25.196 -0.973,0.528 -0.426,4.668 -4.426,5.293 -13.461,-0.742 -17.305,8.047 -18.047,14.551 -0.274,2.11 -1.094,2.832 -2.516,1.856 -5.129,-3.551 -17.691,-10.547 -25.574,-0.254 -1.129,1.465 -4.895,-0.078 -6.941,-0.957 -1.645,-0.684 -1.68,1.996 -1.645,2.832 0.957,14.164 10.539,20.527 15.805,22.992 1.953,0.918 2.168,1.93 0.601,3.086 -4.25,3.164 -11.761,10 -9.379,17.422 0.43,1.402 -6.285,4.058 -4.601,5.269 15.484,11.231 35.344,-7.398 37.879,-9.414 2.656,-2.129 16.738,-2.578 52.633,17.617 22.82,12.832 34.757,23.442 41.253,31.504 0.801,0.942 2.461,2.657 4.782,2.735 14.472,0.492 28.773,2.636 39.949,12.48 1.832,1.914 3.746,0.781 4.527,0.235 20.52,-14.297 31.114,17.343 35.348,31.796 0.547,2.93 1.168,5.356 4.293,5.508 75.609,-3.633 218.898,-3.125 218.898,-3.125 0,0 18.895,-1.504 17.907,10.254 -1.5,18.828 -79.664,18.418 -137.993,10.371 -21.183,-2.906 -51.953,-4.59 -70.14,2.461 -7.551,2.934 -13.656,7.602 -17.047,13.637 -3.629,7.672 -2.676,12.262 -1.992,17.129 0.898,3.511 2.609,7.246 5.074,11.187 14.937,23.125 49.551,24.883 60.277,24.883 2.059,0 3.348,0.883 3.633,2.387 1.078,5.347 5.117,17.672 19.613,18.472 4.079,0.254 8.227,1.797 10.805,2.989 1.715,0.781 2.809,0.312 2.496,-1.192 -0.41,-1.851 -1.301,-4.351 -3.433,-6.211 -10.168,-8.726 -8.68,-12.754 -7.45,-13.906 0.703,-0.547 1.61,-0.273 2.387,0.449 30.813,26.875 48.762,9.082 54.238,3.262 0.918,-1.016 1.16,-2.652 -0.621,-3.086 -20.941,-4.687 -29.015,-23.379 -71.758,-20.367 -5.199,0.328 -40.195,2.09 -51.308,-13.773 -6.395,-9.219 -1.945,-17.809 16.949,-21.993 14.348,-3.14 47.813,1.719 63.582,3.008 15.434,1.27 82.766,9.688 118.055,-0.484 14.906,-4.258 36.547,-16.235 32.246,-38.832 -2.817,-14.254 -16.524,-19.864 -16.524,-19.864 0,0 -38.742,-27.285 30.727,-27.578 z M 642.219,708.727 c -5.407,-4.723 -15.055,-9.883 -30.328,-9.336 -6.457,0.277 -9.579,-1.582 -11.2,-3.496 -0.957,-1.305 -1.546,-2.926 -1.652,-3.258 -0.891,-3.188 0.281,-6.586 1.984,-9.258 1.645,-2.348 1.02,-3.852 -1.519,-4.453 -2.516,-0.664 -5.844,-0.727 -12.402,2.437 -2.891,1.391 -3.707,-0.39 -4.09,-1.734 -1.094,-3.188 1.004,-7.133 5.293,-9.984 2.207,-1.93 1.797,-3.805 -1.633,-5.016 -5.777,-2.016 -10.953,0.625 -19.43,5.332 -4.969,2.769 -8.82,3.219 -12.164,-0.742 -1.914,-2.192 -1.726,-4.242 -0.625,-5.375 3.297,-3.258 5.258,-9.801 -2.933,-20.133 -2.727,-3.418 -5.661,6.031 -8.157,4.898 -11.234,-5.254 -20.441,1.621 -23.933,6.352 -0.762,0.957 -2.321,1.266 -4.27,0.016 -5.617,-3.766 -17.637,-9.981 -22.273,0.863 -0.723,1.582 -7.336,-2.461 -7.258,0.64 0.25,17.95 15.816,21.313 22.473,21.899 2.027,0.215 2.433,1.187 1.363,2.832 -2.653,3.883 -5.852,8.512 -4.098,13.902 1.231,3.965 -8.972,4.883 -4.797,6.938 20.543,10.25 32.035,-9.36 35.598,-11.465 5.945,-3.418 32.758,5.293 36.023,19.82 0.704,2.856 -6.25,4.121 -13.144,5.84 -1.25,0.297 -1.953,1.895 0.324,3.715 16.27,12.105 29.305,27.809 58.715,30.738 3.559,0.371 4.988,-2.578 5.098,-4.023 0.566,-4.571 1.765,-9.039 3.718,-13.203 4.25,-9.024 9.364,-14.629 14.543,-18.731 2.496,-1.988 2.192,-4.781 0.774,-6.015" />
            <path
               inkscape:connector-curvature="0"
               id="path915"
               style="fill:#ffffff;fill-opacity:1;fill-rule:nonzero;stroke:none"
               d="m 471.855,612.129 c -166.742,0 -342.66,-26.742 -385.2222,-33.609 v 322.242 c 5.6953,1.66 15.4292,4.468 28.5392,7.965 65.68,17.617 215.258,52.832 356.683,52.793 94.254,0 192.215,-15.606 266.461,-31.27 37.114,-7.852 68.293,-15.664 90.207,-21.523 13.114,-3.497 22.832,-6.305 28.563,-7.965 V 578.52 c -42.613,6.867 -218.481,33.609 -385.231,33.609 z m 395.997,302.789 c 0,0 -203.899,63.223 -395.997,63.281 C 279.789,978.141 76.2539,915.016 75.8633,914.918 l -5.8867,-1.797 c 0,0 0,-126.363 0,-397.922 C 70.0117,284.02 245.496,74.1289 471.797,73.8633 V 90.5469 C 364.062,90.5469 267.93,140.816 198.484,219.117 129.059,297.398 86.5938,403.746 86.6328,515.199 v 46.426 c 16.1092,2.637 59.6132,9.473 118.0552,16.328 74.359,8.766 172.48,17.531 267.167,17.531 94.672,0 192.801,-8.765 267.211,-17.531 58.395,-6.855 101.907,-13.711 118.02,-16.328 V 515.199 C 857.086,403.746 814.648,297.398 745.238,219.117 675.766,140.816 579.648,90.5469 471.934,90.5469 V 73.8633 c 226.273,0.2656 401.761,210.1567 401.793,441.3357 0,271.559 0,397.922 0,397.922 l -5.875,1.797" />
          </g>
        </g>
      </g>
    </g>
  </g>
</svg>
